<svg width="20" height="20" viewBox="0 0 20 20" fill="none" xmlns="http://www.w3.org/2000/svg">
<g clip-path="url(#clip0_265_18)">
<path d="M14.3265 7.67089C14.9113 7.12002 15.2765 6.33848 15.2765 5.4718V4.26362C15.2765 2.59572 13.924 1.24316 12.2561 1.24316C11.2965 1.24316 10.4412 1.69089 9.88794 2.38879" stroke="#1673FF" stroke-width="2" stroke-miterlimit="10" stroke-linecap="square"/>
<path d="M14.0376 11.4209H15.3019C17.3039 11.4209 18.9265 13.0435 18.9265 15.0454C18.9265 15.0454 17.1615 15.0454 17.1361 15.0454" stroke="#1673FF" stroke-width="2" stroke-miterlimit="10" stroke-linecap="square"/>
<path d="M7.52517 13.0835C5.84551 13.0835 4.4834 11.7214 4.4834 10.0417V8.82498C4.4834 7.14531 5.84551 5.7832 7.52517 5.7832C9.20484 5.7832 10.567 7.14531 10.567 8.82498V10.0417C10.567 11.7214 9.20484 13.0835 7.52517 13.0835Z" stroke="#111111" stroke-width="2" stroke-miterlimit="10" stroke-linecap="square"/>
<path d="M7.52516 15.5168H4.48338C2.46729 15.5168 0.833252 17.1509 0.833252 19.167C0.833252 19.167 7.49967 19.1667 7.52522 19.1667" stroke="#111111" stroke-width="2" stroke-miterlimit="10" stroke-linecap="square"/>
<path d="M7.52516 15.5168L10.5925 15.5166C12.6086 15.5166 14.2427 17.1506 14.2427 19.1667C14.2427 19.1667 7.55077 19.1667 7.52522 19.1667" stroke="#111111" stroke-width="2" stroke-miterlimit="10" stroke-linecap="square"/>
</g>
<defs>
<clipPath id="clip0_265_18">
<rect width="20" height="20" fill="white"/>
</clipPath>
</defs>
</svg>
