<svg width="20" height="20" viewBox="0 0 20 20" fill="none" xmlns="http://www.w3.org/2000/svg">
<g clip-path="url(#clip0_1_681)">
<path d="M13.8184 13H18.9999V9.62283C18.9999 9.03569 18.7062 8.4914 18.2251 8.18968L15.9137 6.73682" stroke="#08090A" stroke-width="2" stroke-miterlimit="10"/>
<path d="M11.021 2.88487C11.4432 1.77829 12.4749 1 13.6817 1C15.2633 1 16.5454 2.34315 16.5454 4.00002V4.85716C16.5454 6.51403 15.2633 7.85718 13.6817 7.85718C13.2342 7.85718 12.8316 7.75432 12.4544 7.56232" stroke="#08090A" stroke-width="2" stroke-miterlimit="10"/>
<path d="M5.79291 11.1912L2.07264 13.526C1.40745 13.9435 1 14.6969 1 15.5103V18.9998H15.7273V15.5103C15.7273 14.6978 15.3198 13.9443 14.6546 13.526L10.9344 11.1912" stroke="#08090A" stroke-width="2" stroke-miterlimit="10"/>
<path d="M8.36386 12.1432C6.10486 12.1432 4.27295 10.224 4.27295 7.85745V6.14316C4.27295 3.77658 6.10486 1.85742 8.36386 1.85742C10.6229 1.85742 12.4548 3.77658 12.4548 6.14316V7.85745C12.4548 10.224 10.6229 12.1432 8.36386 12.1432Z" stroke="#08090A" stroke-width="2" stroke-miterlimit="10" stroke-linecap="square"/>
</g>
<defs>
<clipPath id="clip0_1_681">
<rect width="20" height="20" fill="white"/>
</clipPath>
</defs>
</svg>
