<svg width="20" height="20" viewBox="0 0 20 20" fill="none" xmlns="http://www.w3.org/2000/svg">
<path d="M10 4.16536C10.9205 4.16536 11.6667 3.41917 11.6667 2.4987C11.6667 1.57822 10.9205 0.832031 10 0.832031C9.07957 0.832031 8.33337 1.57822 8.33337 2.4987C8.33337 3.41917 9.07957 4.16536 10 4.16536Z" stroke="black" stroke-width="2" stroke-miterlimit="10" stroke-linecap="square"/>
<path d="M2.78337 16.6654C3.70384 16.6654 4.45003 15.9192 4.45003 14.9987C4.45003 14.0782 3.70384 13.332 2.78337 13.332C1.86289 13.332 1.1167 14.0782 1.1167 14.9987C1.1167 15.9192 1.86289 16.6654 2.78337 16.6654Z" stroke="black" stroke-width="2" stroke-miterlimit="10" stroke-linecap="square"/>
<path d="M17.2167 16.6654C18.1372 16.6654 18.8834 15.9192 18.8834 14.9987C18.8834 14.0782 18.1372 13.332 17.2167 13.332C16.2962 13.332 15.55 14.0782 15.55 14.9987C15.55 15.9192 16.2962 16.6654 17.2167 16.6654Z" stroke="black" stroke-width="2" stroke-miterlimit="10" stroke-linecap="square"/>
<path d="M5.23251 4.00391C3.75359 5.03149 2.6488 6.512 2.08468 8.22224C1.52056 9.93247 1.5277 11.7797 2.10501 13.4856" stroke="black" stroke-width="2" stroke-miterlimit="10" stroke-linecap="square"/>
<path d="M16.2418 16.3398C15.052 17.6961 13.4525 18.6276 11.6857 18.993C9.91888 19.3584 8.08111 19.1379 6.45093 18.3648" stroke="black" stroke-width="2" stroke-miterlimit="10" stroke-linecap="square"/>
<path d="M18.3026 10.1266C18.15 8.33054 17.4192 6.63243 16.2197 5.28695C15.0203 3.94146 13.4169 3.02115 11.6501 2.66406" stroke="black" stroke-width="2" stroke-miterlimit="10" stroke-linecap="square"/>
</svg>
