<svg width="20" height="20" viewBox="0 0 20 20" fill="none" xmlns="http://www.w3.org/2000/svg">
<g clip-path="url(#clip0_1_721)">
<path d="M15.7318 9.1881V6.73167C15.7318 5.21154 15.1279 3.75366 14.053 2.67877C12.9781 1.60387 11.5203 1 10.0001 1C8.47998 1 7.02211 1.60387 5.94721 2.67877C4.87231 3.75366 4.26844 5.21154 4.26844 6.73167V9.1881C4.26844 11.8902 1.81201 12.5452 1.81201 14.101C1.81201 15.4929 5.00537 16.5574 10.0001 16.5574C14.9949 16.5574 18.1882 15.4929 18.1882 14.101C18.1882 12.5452 15.7318 11.8902 15.7318 9.1881Z" stroke="#08090A" stroke-width="2" stroke-miterlimit="10" stroke-linecap="square"/>
<path d="M10.0003 18.1953C9.17248 18.1953 8.39461 18.1675 7.6626 18.1135C7.81866 18.6113 8.12956 19.0463 8.55004 19.3551C8.97051 19.664 9.47859 19.8305 10.0003 19.8305C10.522 19.8305 11.0301 19.664 11.4506 19.3551C11.871 19.0463 12.1819 18.6113 12.338 18.1135C11.606 18.1675 10.8281 18.1953 10.0003 18.1953Z" fill="#08090A"/>
</g>
<defs>
<clipPath id="clip0_1_721">
<rect width="20" height="20" fill="white"/>
</clipPath>
</defs>
</svg>
