<svg width="88" height="88" viewBox="0 0 88 88" fill="none" xmlns="http://www.w3.org/2000/svg">
<path d="M24.8944 63.1305C26.0173 64.2684 27.3547 65.1718 28.8289 65.7883C30.3032 66.4049 31.8851 66.7224 33.4829 66.7224C35.0806 66.7224 36.6625 66.4049 38.1368 65.7883C39.611 65.1718 40.9484 64.2684 42.0713 63.1305L24.8944 45.9351C23.7578 47.0592 22.8554 48.398 22.2394 49.8739C21.6235 51.3497 21.3064 52.9333 21.3064 54.5328C21.3064 56.1323 21.6235 57.7159 22.2394 59.1917C22.8554 60.6676 23.7578 62.0064 24.8944 63.1305Z" fill="#1673FF"/>
<path d="M85.1363 19.7731C86.2713 23.924 86.2879 28.3018 85.1845 32.4612C84.0812 36.6207 81.8971 40.4134 78.8545 43.4537L59.0519 63.4004L24.6981 29.0095L44.3288 9.11192C48.8878 4.55772 55.0653 2 61.5058 2C67.9463 2 74.1237 4.55772 78.6827 9.11192L84.621 3.16721" stroke="black" stroke-width="4"/>
<path d="M60.5297 64.8572L23.207 27.4942C20.9838 25.2686 17.3831 25.2647 15.1647 27.4855C12.9462 29.7063 12.9501 33.3109 15.1733 35.5365L52.496 72.8995C54.7192 75.1251 58.3199 75.129 60.5383 72.9082C62.7568 70.6873 62.7529 67.0828 60.5297 64.8572Z" stroke="black" stroke-width="4" stroke-linejoin="round"/>
<path d="M2.00001 35.1998C1.99679 32.4569 2.53408 29.7402 3.58113 27.2055C4.62819 24.6707 6.16443 22.3676 8.10189 20.4281C10.0393 18.4885 12.34 16.9506 14.872 15.9024C17.404 14.8542 20.1177 14.3164 22.8577 14.3196" stroke="black" stroke-width="4" stroke-linejoin="round"/>
<path d="M73.6032 65.1199C73.6065 67.8628 73.0692 70.5794 72.0221 73.1142C70.9751 75.649 69.4388 77.9521 67.5014 79.8916C65.5639 81.8312 63.2633 83.3691 60.7313 84.4172C58.1992 85.4654 55.4855 86.0033 52.7456 86.0001" stroke="black" stroke-width="4" stroke-linejoin="round"/>
</svg>
