<svg width="16" height="16" viewBox="0 0 16 16" fill="none" xmlns="http://www.w3.org/2000/svg">
<path d="M15.7 8.3L14.9 7.5L13.9 0.8C13.9 0.4 13.5 0 13 0H3C2.5 0 2.1 0.4 2 0.9L1 7.6L0.3 8.3C0.1 8.5 0 8.7 0 9V13C0 13.6 0.4 14 1 14V15C1 15.6 1.4 16 2 16H4C4.6 16 5 15.6 5 15V14H11V15C11 15.6 11.4 16 12 16H14C14.6 16 15 15.6 15 15V14C15.6 14 16 13.6 16 13V9C16 8.7 15.9 8.5 15.7 8.3ZM3 12C2.4 12 2 11.6 2 11C2 10.4 2.4 10 3 10C3.6 10 4 10.4 4 11C4 11.6 3.6 12 3 12ZM3.2 7L3.9 2H12.2L12.9 7H3.2ZM13 12C12.4 12 12 11.6 12 11C12 10.4 12.4 10 13 10C13.6 10 14 10.4 14 11C14 11.6 13.6 12 13 12Z" fill="#FFBB54"/>
</svg>
