<svg width="16" height="16" viewBox="0 0 16 16" fill="none" xmlns="http://www.w3.org/2000/svg">
<path d="M12.525 10.863C12.525 8.532 10.663 7.726 9 7.235V3.683C9.49882 3.77237 9.98523 3.92074 10.449 4.125L11.343 4.567L12.229 2.773L11.329 2.331C10.5888 1.99772 9.80439 1.77307 9 1.664V0H7V1.669C4.886 1.987 3.525 3.3 3.525 5.136C3.525 7.443 5.35 8.256 7 8.749V12.349C6.16421 12.2756 5.34047 12.1006 4.547 11.828L3.606 11.488L2.927 13.369L3.868 13.709C4.87889 14.0638 5.9318 14.285 7 14.367V16H9V14.343C12.151 13.956 12.525 11.827 12.525 10.863ZM5.525 5.136C5.525 4.23 6.289 3.853 7 3.7V6.645C5.988 6.285 5.525 5.9 5.525 5.136ZM9 12.327V9.335C10.05 9.7 10.525 10.084 10.525 10.863C10.525 11.217 10.519 12.063 9 12.327Z" fill="#08090A"/>
</svg>
