<svg width="98" height="87" viewBox="0 0 98 87" fill="none" xmlns="http://www.w3.org/2000/svg">
<path d="M2 7.04169V20.2097C4.67449 20.2053 7.28757 19.4028 9.5085 17.9038C11.7294 16.4047 13.4584 14.2766 14.4765 11.7886C10.1088 10.8303 5.90496 9.23083 2 7.04169Z" fill="#1673FF"/>
<path d="M83.6569 51.5609C88.1878 52.7356 92.4033 54.9064 96 57.917V43.4617C93.3849 43.4687 90.8278 44.2373 88.6375 45.6745C86.4471 47.1117 84.7173 49.1562 83.6569 51.5609Z" fill="#1673FF"/>
<path d="M12.8768 59.7138C13.4898 58.2634 13.8071 56.7039 13.8098 55.1278C13.8098 53.5958 13.5099 52.0788 12.9271 50.6634C12.3443 49.248 11.4901 47.9619 10.4132 46.8786C9.33639 45.7953 8.05798 44.936 6.651 44.3497C5.24402 43.7634 3.73604 43.4617 2.21313 43.4617V55.396C5.56069 57.3066 9.14695 58.7587 12.8768 59.7138Z" fill="#1673FF"/>
<path d="M91.0679 6.21054C92.8376 7.11764 94.4933 8.23405 95.9998 9.53607V57.8098C95.9998 57.8098 78.7514 41.5845 48.8932 56.3079C41.6103 59.9339 33.567 61.744 25.4425 61.5853C17.318 61.4266 9.35066 59.3038 2.21313 55.3961V7.12238C9.36357 11.0049 17.3376 13.1 25.462 13.2307C33.5865 13.3614 41.623 11.5239 48.8932 7.8733C54.9199 4.80195 61.4339 2.81425 68.1411 2" stroke="black" stroke-width="4"/>
<path d="M94.4536 65.1577L92.3209 81.9999C92.3209 81.9999 77.2585 63.6022 45.8274 74.2761C38.6562 76.7798 31.0202 77.6431 23.4754 76.8034C15.9306 75.9637 8.66692 73.442 2.21313 69.4219L3.22618 63.3877" stroke="black" stroke-width="4"/>
<path d="M48.8933 47.8601C57.801 47.8601 65.0221 40.5958 65.0221 31.6348C65.0221 22.6738 57.801 15.4094 48.8933 15.4094C39.9857 15.4094 32.7646 22.6738 32.7646 31.6348C32.7646 40.5958 39.9857 47.8601 48.8933 47.8601Z" fill="#1673FF"/>
<path d="M32.7646 19.6735L48.5734 35.6038L79.1781 4.81592" stroke="black" stroke-width="4"/>
</svg>
