<svg width="66" height="64" viewBox="0 0 66 64" fill="none" xmlns="http://www.w3.org/2000/svg">
<path d="M61.6698 32.0304C61.6629 38.8353 59.3555 45.4356 55.1263 50.748C50.8971 56.0604 44.9975 59.7692 38.3957 61.2656C31.794 62.762 24.8824 61.9571 18.7956 58.9831C12.7087 56.009 7.80824 51.0425 4.89854 44.8988C1.98883 38.755 1.24279 31.7991 2.78287 25.1728C4.32295 18.5465 8.05764 12.6435 13.3739 8.43289C18.6902 4.22223 25.2721 1.95407 32.0394 2.00071C38.8066 2.04734 45.357 4.40601 50.6154 8.68953" stroke="black" stroke-width="3" stroke-linejoin="round"/>
<path d="M32.5653 50.6585L9.31885 27.3006L16.7054 19.8731L32.5653 35.8037L58.6304 9.61133L66 17.0217L32.5653 50.6585Z" fill="#1673FF"/>
<path d="M30.0859 9.64593C32.8367 9.48446 35.5921 9.87371 38.1921 10.7911C40.7922 11.7085 43.1853 13.1358 45.2326 14.9903" stroke="black" stroke-width="3" stroke-linejoin="round"/>
<path d="M22.4271 51.7517C19.9076 50.6213 17.6361 48.9995 15.7444 46.9801C13.8527 44.9606 12.3783 42.5838 11.4067 39.9873" stroke="black" stroke-width="3" stroke-linejoin="round"/>
</svg>
