<svg xmlns="http://www.w3.org/2000/svg" viewBox="0 0 57.7 57.89">
    <defs>
        <style>
            .cls-1,
            .cls-2 {
                fill: none;
                stroke-linejoin: round;
                stroke-width: 2px;
            }
            .cls-1 {
                stroke: #000;
            }
            .cls-2 {
                stroke: #1673ff;
            }
        </style>
    </defs>
    <g id="Layer_2" data-name="Layer 2">
        <g id="Layer_1-2" data-name="Layer 1">
            <line class="cls-1" x1="1" y1="15.83" x2="30.66" y2="15.83" />
            <path
                class="cls-1"
                d="M15.83,30.66c-3.64,0-6.59-6.64-6.59-14.83S12.19,1,15.83,1s6.59,6.64,6.59,14.83A28.23,28.23,0,0,1,21,25.13"
            />
            <circle class="cls-1" cx="15.83" cy="15.83" r="14.83" />
            <circle class="cls-1" cx="41.87" cy="42.06" r="14.83" />
            <rect
                class="cls-1"
                x="33.99"
                y="34.18"
                width="15.77"
                height="15.77"
            />
            <path
                class="cls-2"
                d="M37.25,5.84h6.66a5.27,5.27,0,0,1,5.28,5.27v6.67"
            />
            <polyline
                class="cls-2"
                points="45.06 13.52 49.31 17.78 53.67 13.42"
            />
            <path
                class="cls-2"
                d="M22.11,51.21H15.45a5.28,5.28,0,0,1-5.28-5.27V39.27"
            />
            <polyline
                class="cls-2"
                points="14.31 43.53 10.05 39.27 5.7 43.63"
            />
        </g>
    </g>
</svg>
