<svg width="64" height="64" viewBox="0 0 64 64" fill="none" xmlns="http://www.w3.org/2000/svg">
<path d="M10.0726 38.8855C9.5391 37.3977 9.17877 35.8534 8.99878 34.2832" stroke="black" stroke-width="3" stroke-linejoin="round"/>
<path d="M52.5494 23.9375C54.8507 29.0322 55.0346 34.8322 53.0607 40.0625" stroke="black" stroke-width="3" stroke-linejoin="round"/>
<path d="M47.7768 57.5164C41.522 61.3838 34.0645 62.819 26.8209 61.5495C19.5774 60.28 13.0525 56.3941 8.48573 50.63C3.91893 44.8659 1.62838 37.6252 2.04919 30.2833C2.47 22.9414 5.57285 16.0099 10.7683 10.8053C15.9638 5.60077 22.89 2.48584 30.2311 2.05223C37.5722 1.61862 44.8169 3.89654 50.5889 8.45328C56.361 13.01 60.2582 19.5281 61.5404 26.7694C62.8226 34.0107 61.4004 41.4707 57.5439 47.7323" stroke="black" stroke-width="3" stroke-linejoin="round"/>
<path d="M43.7033 12.9258L12.9363 43.6075L20.3852 51.0734L51.1181 20.3405L43.7033 12.9258Z" fill="#3742F7"/>
<path d="M51.1007 43.6762L20.419 12.9092L12.9531 20.358L43.686 51.0909L51.1007 43.6762Z" fill="#3742F7"/>
</svg>
