<svg width="74" height="62" viewBox="0 0 74 62" fill="none" xmlns="http://www.w3.org/2000/svg">
<path d="M18.3417 20.5342H33.3379V19.3895C33.3605 17.7169 34.0418 16.1207 35.234 14.9473C36.4261 13.774 38.0329 13.1181 39.7056 13.122H57.3491C55.1025 -0.228699 46.8746 0.000251759 46.8746 0.000251759H7.35205C8.08183 0.000251759 18.3417 0.429533 18.3417 20.5342Z" fill="#1673FF"/>
<path d="M33.3376 20.5346H2L8.95437 60H68.181L67.1793 54.2762L61.2266 20.506L61.012 19.304C60.7058 17.5643 59.7963 15.9881 58.4434 14.8523C57.0904 13.7166 55.3805 13.0939 53.614 13.0938H40.85C38.8699 13.0937 36.9699 13.8753 35.5631 15.2687C34.1563 16.6622 33.3564 18.5546 33.3376 20.5346Z" stroke="#040F1F" stroke-width="2.80208"/>
<path d="M68.1812 59.9995L72.0304 18.5023C72.0942 17.8215 72.015 17.1349 71.798 16.4865C71.581 15.8381 71.2309 15.2422 70.7701 14.737C70.3094 14.2318 69.7482 13.8285 69.1225 13.5528C68.4967 13.2771 67.8203 13.1352 67.1366 13.1362H65.6055" stroke="#040F1F" stroke-width="2.80208"/>
<path d="M22.4048 29.7495L33.1655 39.9807" stroke="#040F1F" stroke-width="2.80208"/>
<path d="M40.936 29.2632L25.396 50.6987" stroke="#040F1F" stroke-width="2.80208"/>
<path d="M37.2725 43.8877L43.9406 50.2125" stroke="#040F1F" stroke-width="2.80208"/>
</svg>
