<svg width="20" height="20" viewBox="0 0 20 20" fill="none" xmlns="http://www.w3.org/2000/svg">
<g clip-path="url(#clip0_2704_2800)">
<path d="M13.3333 6.6665H6.66663V13.3332H13.3333V6.6665Z" stroke="#08090A" stroke-width="2" stroke-miterlimit="10" stroke-linecap="square"/>
<path d="M1.66663 4.1665C1.66663 2.74984 2.74996 1.6665 4.16663 1.6665C5.58329 1.6665 6.66663 2.74984 6.66663 4.1665C6.66663 4.83317 6.66663 6.6665 6.66663 6.6665C6.66663 6.6665 4.91663 6.6665 4.16663 6.6665C2.74996 6.6665 1.66663 5.58317 1.66663 4.1665Z" stroke="#08090A" stroke-width="2" stroke-miterlimit="10" stroke-linecap="square"/>
<path d="M18.3333 4.1665C18.3333 2.74984 17.2499 1.6665 15.8333 1.6665C14.4166 1.6665 13.3333 2.74984 13.3333 4.1665C13.3333 4.83317 13.3333 6.6665 13.3333 6.6665C13.3333 6.6665 15.0833 6.6665 15.8333 6.6665C17.2499 6.6665 18.3333 5.58317 18.3333 4.1665Z" stroke="#08090A" stroke-width="2" stroke-miterlimit="10" stroke-linecap="square"/>
<path d="M18.3333 15.833C18.3333 17.2497 17.2499 18.333 15.8333 18.333C14.4166 18.333 13.3333 17.2497 13.3333 15.833C13.3333 15.1663 13.3333 13.333 13.3333 13.333C13.3333 13.333 15.0833 13.333 15.8333 13.333C17.2499 13.333 18.3333 14.4163 18.3333 15.833Z" stroke="#08090A" stroke-width="2" stroke-miterlimit="10" stroke-linecap="square"/>
<path d="M1.66663 15.833C1.66663 17.2497 2.74996 18.333 4.16663 18.333C5.58329 18.333 6.66663 17.2497 6.66663 15.833C6.66663 15.1663 6.66663 13.333 6.66663 13.333C6.66663 13.333 4.91663 13.333 4.16663 13.333C2.74996 13.333 1.66663 14.4163 1.66663 15.833Z" stroke="#08090A" stroke-width="2" stroke-miterlimit="10" stroke-linecap="square"/>
</g>
<defs>
<clipPath id="clip0_2704_2800">
<rect width="20" height="20" fill="white"/>
</clipPath>
</defs>
</svg>
