<svg width="1109" height="398" viewBox="0 0 1109 398" fill="none" xmlns="http://www.w3.org/2000/svg">
<path fill-rule="evenodd" clip-rule="evenodd" d="M641.735 146C663.942 146 680.214 156.377 684.614 174.039L684.922 175.377L659.664 180.374C657.793 170.834 649.686 166.14 641.423 166.14C632.848 166.14 627.391 170.683 627.391 176.437C627.391 180.299 629.06 183.215 634.762 184.675L635.81 184.917L657.482 189.611C675.567 193.549 686.169 203.089 686.169 219.14C686.169 240.794 666.369 252 643.138 252C620.119 252 601.124 241.576 597.668 222.569L597.456 221.26L623.961 216.263C626.611 226.711 634.095 231.254 644.541 231.254C654.207 231.254 659.976 227.014 659.976 220.806C659.976 216.502 658.017 213.693 651.448 212.122L650.31 211.871L628.482 207.329C627.673 207.148 626.87 206.956 626.073 206.75L623.708 206.091C610.836 202.233 600.418 194.428 600.418 177.951C600.418 158.266 617.257 146 641.735 146ZM345.185 148.789L345.184 193.862L382.761 148.789H411.709L373.605 194.487L411.685 249.209H384.617L358.851 212.183L345.184 228.574L345.185 249.211H323V148.789H345.185ZM492.109 148.789V165.526H442.208V190.632H492.109V207.368H442.208V232.474H492.109V249.211H420.03V148.789H492.109ZM523.991 148.789L548.941 191.273L573.892 148.789H598.842L560.03 216.479V249.211H537.852V216.479L499.04 148.789H523.991ZM1067 149.312V166.059H1016.96V191.179H1067V207.925H1016.96V233.045H1067V249.792H994.718V149.312H1067ZM775.091 149.312V171.641H744.51V249.792H722.269V171.641H691.688V149.312H775.091ZM826.523 149.312C854.16 149.312 876.564 171.806 876.564 199.552C876.564 227.299 854.16 249.792 826.523 249.792C798.885 249.792 776.481 227.299 776.481 199.552C776.481 171.806 798.885 149.312 826.523 149.312ZM826.523 173.316C812.09 173.316 800.39 185.062 800.39 199.552C800.39 214.042 812.09 225.788 826.523 225.788C840.955 225.788 852.655 214.042 852.655 199.552C852.655 185.062 840.955 173.316 826.523 173.316ZM907.145 149.312L957.187 214.205V149.312H979.427V249.792H957.187L907.145 184.899V249.792H884.904V149.312H907.145Z" fill="black"/>
<path fill-rule="evenodd" clip-rule="evenodd" d="M128.191 233.729C129.395 234.425 130.503 235.275 131.486 236.257L176.17 280.87C185.551 290.236 185.659 305.374 176.484 314.872L176.111 315.25L168.758 322.542C162.784 328.466 153.74 330.017 146.133 326.424L95.0722 302.303C85.0849 297.585 80.8132 285.664 85.5312 275.676C85.7675 275.176 86.0245 274.686 86.3014 274.207L106.331 239.571C110.755 231.921 120.542 229.306 128.191 233.729ZM147.563 70.4189C149.4 71.4732 150.924 72.9946 151.982 74.8287L162.108 92.3783C165.68 98.5698 165.676 106.197 162.098 112.385L67.2622 276.384C65.3999 279.604 61.2795 280.705 58.0591 278.843C57.0459 278.257 56.2029 277.417 55.6131 276.406C51.735 269.76 48.7767 262.618 46.8193 255.176L45.2828 249.334C42.4082 238.404 43.9512 226.782 49.5783 216.981L131.182 74.8507C134.482 69.1032 141.816 67.119 147.563 70.4189ZM184.755 135.913C187.184 137.318 189.202 139.337 190.604 141.768L211.988 178.83C216.404 186.484 213.779 196.269 206.125 200.685C203.694 202.088 200.936 202.826 198.129 202.826H151.848C144.116 202.826 137.848 196.558 137.848 188.826C137.848 186.365 138.496 183.948 139.728 181.818L162.895 141.755C167.318 134.105 177.105 131.49 184.755 135.913Z" fill="black"/>
<path fill-rule="evenodd" clip-rule="evenodd" d="M241.851 230.59C246.064 237.891 244.828 247.115 238.842 253.05L217.061 274.646C210.027 281.621 198.68 281.601 191.67 274.602L152.282 235.277C148.374 231.375 148.369 225.043 152.271 221.135C154.147 219.256 156.693 218.2 159.348 218.2H220.399C229.25 218.2 237.428 222.923 241.851 230.59Z" fill="#2161FF"/>
</svg>
