<svg width="118" height="31" viewBox="0 0 118 31" fill="none" xmlns="http://www.w3.org/2000/svg">
<path d="M35.6133 23.5559V1.45762H37.1891V22.0983H47.9801V23.5559H35.6133ZM55.7733 23.8618C53.3295 23.8618 51.4396 23.094 50.0238 21.6364C48.688 20.1788 47.974 18.1093 47.974 15.422C47.974 12.8127 48.6019 10.6652 49.9438 9.12964C51.2796 7.51606 53.0155 6.74826 55.2993 6.74826C57.2691 6.74826 58.845 7.43808 60.0269 8.74574C61.2088 10.1254 61.7566 11.9669 61.7566 14.2703V15.5H49.5498C49.5498 17.7254 50.1039 19.489 51.2057 20.6407C52.2276 21.8704 53.8034 22.4042 55.7733 22.4042C56.7151 22.4042 57.5831 22.3262 58.291 22.1763C58.9989 22.0203 59.9469 21.7924 61.0487 21.3305V22.7881C60.1069 23.172 59.239 23.4779 58.451 23.6339C57.5707 23.7899 56.672 23.8678 55.7733 23.8618ZM55.2993 8.1339C53.6434 8.1339 52.3876 8.67376 51.3596 9.6695C50.4178 10.7432 49.7838 12.2009 49.6299 14.1983H60.0269C60.0269 12.2788 59.6329 10.8212 58.765 9.74748C57.977 8.66776 56.7951 8.1339 55.2993 8.1339ZM69.9499 6.82624C71.1318 6.82624 72.2337 7.05418 73.1016 7.43808C73.9696 7.89996 74.7575 8.58978 75.4654 9.66351H75.5455C75.4654 8.36184 75.4654 7.13216 75.4654 5.90248V0H76.9613V23.5559H75.9394L75.5455 21.0246C74.2835 22.8661 72.3937 23.8618 70.0299 23.8618C67.6661 23.8618 65.9364 23.172 64.6745 21.7144C63.4125 20.3348 62.8647 18.2593 62.8647 15.578C62.8647 12.7407 63.4926 10.5873 64.6745 9.05766C65.8564 7.52206 67.6661 6.82624 69.9499 6.82624ZM69.9499 8.1339C68.1401 8.1339 66.7243 8.74574 65.7763 10.0534C64.8345 11.2831 64.3605 13.1246 64.3605 15.578C64.3605 20.2568 66.2503 22.5602 69.9499 22.5602C71.8397 22.5602 73.2555 22.0203 74.1235 20.9466C74.9915 19.8729 75.4593 18.1093 75.4593 15.572V15.344C75.4593 12.8127 74.9853 10.9712 74.1235 9.89745C73.3356 8.66776 71.9197 8.1339 69.9499 8.1339ZM93.3355 7.13816V8.21188L89.8698 8.43982C90.8117 9.59153 91.2856 10.8212 91.2856 12.1229C91.2856 13.7365 90.7316 14.9601 89.6298 15.9619C88.5279 16.9576 87.1121 17.4195 85.2961 17.4195C84.5082 17.4195 83.9603 17.4195 83.7203 17.3415C83.0924 17.6474 82.6184 18.0313 82.3044 18.4152C81.9905 18.8771 81.8305 19.261 81.8305 19.7949C81.8305 20.3288 82.0644 20.7127 82.4583 20.9466C82.8523 21.1745 83.5602 21.3305 84.5082 21.3305H87.4199C89.2296 21.3305 90.6455 21.7144 91.5934 22.4042C92.5414 23.094 93.0893 24.1678 93.0893 25.6254C93.0893 27.3889 92.3814 28.6966 90.9656 29.6144C89.5497 30.5321 87.4999 30.994 84.8221 30.994C82.6984 30.994 81.0425 30.6101 79.8606 29.7643C78.6787 28.9965 78.1309 27.8448 78.1309 26.4652C78.1309 25.3135 78.5248 24.3957 79.2327 23.6279C79.9407 22.8601 80.9625 22.3982 82.1444 22.0923C81.6704 21.8644 81.2026 21.5524 80.9625 21.1745C80.6547 20.8026 80.4885 20.3467 80.4885 19.8729C80.4885 18.7991 81.1964 17.8034 82.6122 16.9576C81.6704 16.5737 80.8825 15.9619 80.3285 15.1161C79.7744 14.2703 79.5405 13.2746 79.5405 12.2009C79.5405 10.5873 80.0945 9.20762 81.1164 8.21188C82.2183 7.21614 83.6341 6.75426 85.45 6.75426C86.5519 6.75426 87.4199 6.83224 88.0477 7.06018H93.3232V7.13816H93.3355ZM79.6329 26.3212C79.6329 28.5466 81.3626 29.6983 84.8283 29.6983C89.2358 29.6983 91.4457 28.3187 91.4457 25.5534C91.4457 24.5577 91.1318 23.8678 90.4238 23.406C89.7159 22.9441 88.6141 22.7161 87.0382 22.7161H84.2804C81.2087 22.7881 79.6329 23.9398 79.6329 26.3212ZM80.9748 12.2009C80.9748 13.5025 81.3688 14.4263 82.1567 15.1941C82.9446 15.8839 83.9665 16.2678 85.3084 16.2678C86.7243 16.2678 87.8261 15.8839 88.534 15.1941C89.322 14.5043 89.6359 13.5085 89.6359 12.2009C89.6359 10.8212 89.2419 9.74748 88.454 9.05766C87.6661 8.36784 86.6442 7.98394 85.2284 7.98394C83.8926 7.98394 82.7846 8.36784 82.0767 9.13564C81.2888 9.81947 80.9748 10.8932 80.9748 12.2009Z" fill="#040F1F"/>
<path d="M100.973 23.8597C98.5296 23.8597 96.6398 23.0919 95.224 21.6342C93.8882 20.1766 93.1741 18.1072 93.1741 15.4198C93.1741 12.8105 93.802 10.6631 95.144 9.12747C96.4798 7.51389 98.2157 6.74608 100.499 6.74608C102.469 6.74608 104.045 7.43591 105.227 8.74357C106.409 10.1232 106.957 11.9647 106.957 14.2681V15.4978H94.83C94.83 17.7233 95.384 19.4868 96.4859 20.6385C97.5078 21.8682 99.0836 22.4021 101.053 22.4021C101.995 22.4021 102.863 22.3241 103.571 22.1741C104.279 22.0182 105.227 21.7902 106.329 21.3283V22.786C105.387 23.1699 104.519 23.4758 103.731 23.6317C102.863 23.7877 101.995 23.8597 100.973 23.8597ZM100.579 8.13173C98.9236 8.13173 97.6678 8.67159 96.6398 9.66733C95.698 10.7411 95.0639 12.1987 94.91 14.1962H105.307C105.307 12.2767 104.913 10.819 104.045 9.74531C103.257 8.66559 102.075 8.13173 100.579 8.13173ZM115.698 6.82406C116.406 6.82406 117.194 6.90204 117.982 7.052L117.668 8.50963C116.941 8.35367 116.203 8.27569 115.464 8.28169C114.048 8.28169 112.866 8.89353 111.918 10.0452C110.977 11.2749 110.503 12.7325 110.503 14.5741V23.5538H108.927V7.13598H110.262L110.422 10.1292H110.503C111.21 8.89953 111.918 8.05974 112.706 7.59786C113.654 7.058 114.596 6.82406 115.698 6.82406ZM20.5735 0.765625H9.30852V15.4978H24.427V4.59864C24.4331 2.52917 22.6972 0.765625 20.5735 0.765625ZM5.849 0.765625H3.9592C1.83547 0.765625 0.0195312 2.45119 0.0195312 4.60464V6.44616H5.849V0.765625ZM0.0195312 9.89527H5.849V15.5758H0.0195312V9.89527ZM18.6037 24.6275H20.4935C22.6172 24.6275 24.4331 22.9419 24.4331 20.7885V18.9529H18.6037V24.6275ZM9.30852 18.9529H15.138V24.6335H9.30852V18.9529ZM0.0195312 18.9529V20.7945C0.0195312 22.8639 1.74929 24.6335 3.9592 24.6335H5.849V18.9529H0.0195312Z" fill="#040F1F"/>
</svg>
