<svg width="21" height="20" viewBox="0 0 21 20" fill="none" xmlns="http://www.w3.org/2000/svg">
<g clip-path="url(#clip0_4287:344)">
<path d="M14.3868 18.3328H4.38684V1.66613H14.3868V3.3328H16.0535V0.832799C16.0602 0.721621 16.0432 0.61029 16.0037 0.506157C15.9642 0.402024 15.903 0.307457 15.8243 0.2287C15.7455 0.149944 15.6509 0.0887892 15.5468 0.0492742C15.4427 0.00975923 15.3313 -0.00721718 15.2202 -0.000534146H3.5535C3.44232 -0.00721718 3.33099 0.00975923 3.22686 0.0492742C3.12273 0.0887892 3.02816 0.149944 2.9494 0.2287C2.87065 0.307457 2.80949 0.402024 2.76998 0.506157C2.73046 0.61029 2.71349 0.721621 2.72017 0.832799V19.1661C2.71349 19.2773 2.73046 19.3886 2.76998 19.4928C2.80949 19.5969 2.87065 19.6915 2.9494 19.7702C3.02816 19.849 3.12273 19.9101 3.22686 19.9497C3.33099 19.9892 3.44232 20.0061 3.5535 19.9995H15.2202C15.3313 20.0061 15.4427 19.9892 15.5468 19.9497C15.6509 19.9101 15.7455 19.849 15.8243 19.7702C15.903 19.6915 15.9642 19.5969 16.0037 19.4928C16.0432 19.3886 16.0602 19.2773 16.0535 19.1661V16.6661H14.3868V18.3328Z" fill="#E44949"/>
<path d="M18.5534 9.99951L12.7201 4.99951V9.16618H6.88672V10.8328H12.7201V14.9995L18.5534 9.99951Z" fill="#E44949"/>
</g>
<defs>
<clipPath id="clip0_4287:344">
<rect width="20" height="20" fill="white" transform="translate(0.21875)"/>
</clipPath>
</defs>
</svg>
