<svg width="20" height="20" viewBox="0 0 20 20" fill="none" xmlns="http://www.w3.org/2000/svg">
<path d="M2.63658 19.0005C3.5403 19.0005 4.27291 18.2678 4.27291 17.364C4.27291 16.4602 3.5403 15.7275 2.63658 15.7275C1.73286 15.7275 1.00024 16.4602 1.00024 17.364C1.00024 18.2678 1.73286 19.0005 2.63658 19.0005Z" stroke="black" stroke-width="2" stroke-miterlimit="10" stroke-linecap="square"/>
<path d="M10.0001 19.0005C10.9038 19.0005 11.6364 18.2678 11.6364 17.364C11.6364 16.4602 10.9038 15.7275 10.0001 15.7275C9.09638 15.7275 8.36377 16.4602 8.36377 17.364C8.36377 18.2678 9.09638 19.0005 10.0001 19.0005Z" stroke="black" stroke-width="2" stroke-miterlimit="10" stroke-linecap="square"/>
<path d="M17.3636 19.0005C18.2674 19.0005 19 18.2678 19 17.364C19 16.4602 18.2674 15.7275 17.3636 15.7275C16.4599 15.7275 15.7273 16.4602 15.7273 17.364C15.7273 18.2678 16.4599 19.0005 17.3636 19.0005Z" stroke="black" stroke-width="2" stroke-miterlimit="10" stroke-linecap="square"/>
<path d="M10 15.7269V11.6357" stroke="black" stroke-width="2" stroke-miterlimit="10"/>
<path d="M16.2068 16.2064L14.0911 14.0905V11.6357" stroke="black" stroke-width="2" stroke-miterlimit="10"/>
<path d="M3.7937 16.2064L5.90948 14.0905V11.6357" stroke="black" stroke-width="2" stroke-miterlimit="10"/>
<path d="M15.3192 4.27215C15.0934 4.27388 14.8682 4.29661 14.6466 4.34007C14.3196 3.36689 13.6952 2.52096 12.8616 1.92168C12.028 1.32239 11.0273 1 10.0006 1C8.97399 1 7.97325 1.32239 7.13965 1.92168C6.30606 2.52096 5.68169 3.36689 5.35467 4.34007C5.13307 4.29661 4.9079 4.27388 4.68208 4.27215C3.70553 4.27215 2.76898 4.66009 2.07846 5.35061C1.38793 6.04113 1 6.97769 1 7.95423C1 8.93078 1.38793 9.86733 2.07846 10.5579C2.76898 11.2484 3.70553 11.6363 4.68208 11.6363H15.3192C16.2958 11.6363 17.2323 11.2484 17.9228 10.5579C18.6134 9.86733 19.0013 8.93078 19.0013 7.95423C19.0013 6.97769 18.6134 6.04113 17.9228 5.35061C17.2323 4.66009 16.2958 4.27215 15.3192 4.27215V4.27215Z" stroke="black" stroke-width="2" stroke-miterlimit="10" stroke-linecap="square"/>
</svg>
