<svg width="88" height="88" viewBox="0 0 88 88" fill="none" xmlns="http://www.w3.org/2000/svg">
<path d="M35.3803 43.0212C36.5007 43.9803 37.7456 44.7835 39.0813 45.4089L41.469 46.5073L46.8175 41.1349L45.5759 40.5857C44.2474 40.111 43.029 39.3718 41.9943 38.4129C41.6071 38.0196 41.302 37.5532 41.097 37.0407C40.8921 36.5283 40.7912 35.9801 40.8005 35.4282C40.7332 34.3561 41.0745 33.2982 41.7556 32.4675C42.0856 32.104 42.4928 31.8189 42.9472 31.633C43.4016 31.4471 43.8919 31.3651 44.3821 31.393C44.9551 31.3654 45.5258 31.4847 46.0398 31.7396C46.5538 31.9946 46.9941 32.3766 47.3189 32.8495C48.0903 34.0836 48.4575 35.5276 48.3695 36.9803H50.9244L56.0819 31.7989C55.6948 30.7471 55.1558 29.7577 54.4821 28.862C52.9429 27.1094 50.8997 25.8752 48.6322 25.3282V19.4783H41.2064V25.1849C38.9322 25.5888 36.8201 26.6324 35.1177 28.1935C34.1553 29.1163 33.3967 30.2304 32.8909 31.4641C32.3851 32.6978 32.1432 34.0238 32.1808 35.3566C32.144 36.8716 32.4289 38.3771 33.0165 39.7739C33.5697 41.0091 34.3749 42.1152 35.3803 43.0212Z" fill="#1673FF"/>
<path d="M53.6703 45.1937L53.0734 44.74L47.5339 50.3511C48.0444 51.1564 48.3022 52.0962 48.274 53.0493C48.3034 53.5693 48.2299 54.0901 48.0578 54.5817C47.8857 55.0733 47.6184 55.5262 47.2712 55.9145C46.9076 56.2721 46.4736 56.5502 45.9968 56.7311C45.52 56.9119 45.0107 56.9916 44.5015 56.9651C43.4964 56.9962 42.5056 56.7214 41.6601 56.1772L36.3354 61.4779C37.8154 62.3238 39.4314 62.9055 41.1109 63.1971V68.6172H48.5367V63.006C50.6194 62.5726 52.5387 61.5633 54.0762 60.093C55.0046 59.1519 55.7312 58.0311 56.2116 56.7995C56.6919 55.5678 56.9159 54.2511 56.8698 52.9299C56.9036 51.395 56.6021 49.8712 55.9864 48.4648C55.4423 47.2297 54.6546 46.1171 53.6703 45.1937Z" fill="#1673FF"/>
<path d="M37.1233 50.8527H30.8197C30.8047 52.6736 31.1369 54.4808 31.7987 56.1773L37.1233 50.8527Z" fill="#598DEC"/>
<path d="M71.2439 26.9276C75.0748 33.0279 76.7453 40.2383 75.9872 47.4017C75.2291 54.5652 72.0865 61.2662 67.0636 66.4296C62.0407 71.5929 55.4288 74.9191 48.289 75.8744C41.1492 76.8297 33.8955 75.3586 27.6919 71.6974" stroke="black" stroke-width="4" stroke-linejoin="round"/>
<path d="M15.7293 59.3052C12.3596 53.0843 11.1369 45.9253 12.2507 38.9386C13.3645 31.9519 16.7526 25.5279 21.8895 20.663C27.0264 15.7982 33.6251 12.7644 40.662 12.032C47.699 11.2997 54.7809 12.9099 60.8094 16.6128" stroke="black" stroke-width="4" stroke-linejoin="round"/>
<path d="M44 86C67.196 86 86 67.196 86 44C86 20.804 67.196 2 44 2C20.804 2 2 20.804 2 44C2 67.196 20.804 86 44 86Z" stroke="black" stroke-width="4" stroke-linejoin="round"/>
<path d="M73.6794 14.2966L14.2968 73.6792" stroke="black" stroke-width="4" stroke-linejoin="round"/>
</svg>
