<svg width="76" height="12" viewBox="0 0 76 12" fill="none" xmlns="http://www.w3.org/2000/svg">
<path d="M12.5497 0C15.1099 0 17.1848 2.08095 17.1848 4.64867C17.1848 7.21638 15.1099 9.28034 12.5497 9.28034H4.61808C2.0579 9.28034 0 7.21638 0 4.64867C0 2.08095 2.0579 0 4.61808 0H12.5497ZM57.8954 0.302357C60.2548 0.302357 61.9111 2.09795 61.9111 4.68266C61.9111 7.09945 60.3046 8.97901 57.9288 8.97901C56.841 8.97901 55.837 8.54273 55.0841 7.78761V12H53.6117V0.386316H54.9167L55.0507 1.44379C55.7035 0.688157 56.707 0.302357 57.8954 0.302357V0.302357ZM49.3952 0.302357C50.3489 0.302357 52.5409 0.654677 52.5409 3.97751V8.89454H51.0854V4.06147C51.0854 2.92003 50.7506 1.61119 49.178 1.61119C47.856 1.61119 47.0364 2.61819 47.0364 4.32983V8.89454H45.5804V4.06147C45.5804 2.48375 44.9276 1.61119 43.7063 1.61119C42.4013 1.61119 41.5647 2.66867 41.5647 4.38031V8.89454H40.0754V0.386316H41.3973L41.481 1.30935C42.0501 0.738636 42.8697 0.302357 43.9241 0.302357C44.9785 0.302357 45.8988 0.822595 46.5007 1.69515C47.2028 0.772117 48.157 0.302357 49.3952 0.302357V0.302357ZM38.3847 7.45126C38.3847 7.55222 38.4684 7.5687 38.5521 7.5687H39.3384V8.89454H38.5521C37.8156 8.89454 37.2969 8.54222 37.0797 7.92102C36.3268 8.67614 35.4568 8.97849 34.1846 8.97849C32.6953 8.97849 31.1725 8.13942 31.1725 6.3943C31.1725 4.64918 32.4441 3.67567 34.5857 3.67567H36.8948V3.27287C36.8948 2.18191 36.1922 1.56123 34.937 1.56123C33.8827 1.56123 33.0964 1.99751 32.929 2.80311L32.8956 2.97103H31.4062L31.473 2.66918C31.8078 1.17543 33.0959 0.302872 35.0202 0.302872C37.1618 0.302872 38.3836 1.44431 38.3836 3.35734V7.45126H38.3847V7.45126ZM66.7469 0.302357C69.0056 0.302357 70.6121 1.91355 70.6121 4.24587C70.6121 4.44727 70.6121 4.76611 70.5787 4.95051H64.2535V4.98399C64.2869 6.61167 65.2909 7.70262 66.6966 7.70262C67.7509 7.70262 68.755 7.13191 69.0056 6.17539L69.0559 5.99099H70.5453L70.4616 6.34331C70.06 8.02146 68.6209 8.97798 66.8306 8.97798C64.3372 8.97798 62.6809 7.18238 62.6809 4.63167C62.6809 2.04747 64.3372 0.302357 66.7469 0.302357V0.302357ZM9.2531 4.64867C9.2531 6.49474 10.7091 7.93802 12.5492 7.93802C14.3894 7.93802 15.8454 6.49474 15.8454 4.64867C15.8454 2.80259 14.3729 1.34283 12.5492 1.34283C10.7091 1.34283 9.2531 2.81959 9.2531 4.64867V4.64867ZM22.2378 0.302357C23.2419 0.302357 25.5679 0.688157 25.5679 4.16242V8.89505H24.0785V4.24638C24.0785 3.05499 23.7272 1.61171 21.9867 1.61171C20.4475 1.61171 19.5272 2.75263 19.5272 4.63218V8.89505H18.0881V0.386316H19.3598L19.4435 1.30935C20.146 0.654677 21.1501 0.302357 22.2378 0.302357V0.302357ZM60.3883 4.63218C60.3883 2.80311 59.3339 1.56123 57.7614 1.56123C56.1888 1.56123 55.0841 2.83659 55.0841 4.63218C55.0841 6.42778 56.1385 7.70314 57.711 7.70314C59.2836 7.70314 60.3883 6.47826 60.3883 4.63218ZM28.0438 1.30935C28.4788 0.738636 29.0812 0.386316 29.7838 0.386316H31.1391V1.77911H29.8341C28.6462 1.77911 28.1275 3.23887 28.1275 4.54823V8.89454H26.6382V0.386316H27.9601L28.0438 1.30935ZM7.93115 4.64867C7.93115 3.35631 8.44987 2.18191 9.28648 1.34283H8.58391C6.74325 1.34283 5.28778 2.81959 5.28778 4.64867C5.28778 6.47774 6.67649 7.87106 8.45038 7.93802H9.287C8.44987 7.09894 7.93115 5.94102 7.93115 4.64867V4.64867ZM1.32194 4.64867C1.32194 6.47774 2.77793 7.93802 4.61808 7.93802H5.32065C4.48403 7.09894 3.96532 5.94102 3.96532 4.64867C3.96532 3.35631 4.48403 2.18191 5.32065 1.34283H4.61808C2.77742 1.34283 1.32194 2.81959 1.32194 4.64867V4.64867ZM34.4527 7.75362C35.9421 7.75362 36.8958 6.7801 36.8958 5.25287V4.85007H34.4024C33.2643 4.85007 32.6624 5.3873 32.6624 6.34382C32.6624 7.5687 33.8 7.75362 34.4527 7.75362V7.75362ZM69.0559 3.70915C68.8387 2.40031 67.9682 1.56123 66.7469 1.56123C65.5256 1.56123 64.6053 2.45079 64.3372 3.70915H69.0559ZM72.9047 1.30935C73.3397 0.738636 73.9421 0.386316 74.6447 0.386316H76V1.77911H74.695C73.5071 1.77911 72.9884 3.23887 72.9884 4.54823V8.89454H71.499V0.386316H72.821L72.9047 1.30935V1.30935Z" fill="black"/>
</svg>
