<svg width="18" height="20" viewBox="0 0 18 20" fill="none" xmlns="http://www.w3.org/2000/svg">
<path d="M17 9.25781H1V19.1667H17V9.25781Z" stroke="black" stroke-width="2" stroke-miterlimit="10" stroke-linecap="square"/>
<path d="M8.99958 15.8635C9.98142 15.8635 10.7774 15.1241 10.7774 14.212C10.7774 13.2999 9.98142 12.5605 8.99958 12.5605C8.01774 12.5605 7.2218 13.2999 7.2218 14.212C7.2218 15.1241 8.01774 15.8635 8.99958 15.8635Z" stroke="#1673FF" stroke-width="2" stroke-miterlimit="10" stroke-linecap="square"/>
<path d="M4.55542 9.25763V5.04634C4.56738 3.96234 5.04231 2.92713 5.87577 2.16837C6.70923 1.40961 7.83296 0.989417 8.99986 1.0002H9.08875C10.2556 1.01132 11.37 1.45251 12.1868 2.22676C13.0036 3.001 13.4559 4.04491 13.4443 5.12892V9.25763" stroke="black" stroke-width="2" stroke-miterlimit="10"/>
</svg>
