<svg width="16" height="16" viewBox="0 0 16 16" fill="none" xmlns="http://www.w3.org/2000/svg">
<path d="M16 4H0V6H1.6L0.4 9.2C-0.2 10.7 0 12.4 0.9 13.8C1.8 15.2 3.3 16 4.9 16H11C12.6 16 14.2 15.2 15.1 13.8C16 12.4 16.2 10.7 15.6 9.2L14.4 6H16V4Z" fill="#0A121E"/>
<path d="M5.5 3C6.32843 3 7 2.32843 7 1.5C7 0.671573 6.32843 0 5.5 0C4.67157 0 4 0.671573 4 1.5C4 2.32843 4.67157 3 5.5 3Z" fill="#0A121E"/>
<path d="M10.5 3C11.3284 3 12 2.32843 12 1.5C12 0.671573 11.3284 0 10.5 0C9.67157 0 9 0.671573 9 1.5C9 2.32843 9.67157 3 10.5 3Z" fill="#0A121E"/>
</svg>
