<svg width="24" height="24" viewBox="0 0 24 24" fill="none" xmlns="http://www.w3.org/2000/svg">
<g clip-path="url(#clip0_1_2197)">
<path d="M21 1H3C1.89543 1 1 1.89543 1 3V19C1 20.1046 1.89543 21 3 21H21C22.1046 21 23 20.1046 23 19V3C23 1.89543 22.1046 1 21 1Z" stroke="#08090A" stroke-width="2" stroke-miterlimit="10" stroke-linecap="square"/>
<path d="M10.5871 9.58706L7.75806 6.75806" stroke="#08090A" stroke-width="2" stroke-miterlimit="10"/>
<path d="M16.2429 15.2429L13.4139 12.4139" stroke="#08090A" stroke-width="2" stroke-miterlimit="10"/>
<path d="M13.4139 9.58706L16.2429 6.75806" stroke="#08090A" stroke-width="2" stroke-miterlimit="10"/>
<path d="M7.75806 15.2429L10.5861 12.4139" stroke="#08090A" stroke-width="2" stroke-miterlimit="10"/>
<path d="M12 17C15.3137 17 18 14.3137 18 11C18 7.68629 15.3137 5 12 5C8.68629 5 6 7.68629 6 11C6 14.3137 8.68629 17 12 17Z" stroke="#08090A" stroke-width="2" stroke-miterlimit="10" stroke-linecap="square"/>
<path d="M12 13C13.1046 13 14 12.1046 14 11C14 9.89543 13.1046 9 12 9C10.8954 9 10 9.89543 10 11C10 12.1046 10.8954 13 12 13Z" stroke="#08090A" stroke-width="2" stroke-miterlimit="10" stroke-linecap="square"/>
<path d="M5 21V23" stroke="#08090A" stroke-width="2" stroke-miterlimit="10" stroke-linecap="square"/>
<path d="M19 21V23" stroke="#08090A" stroke-width="2" stroke-miterlimit="10" stroke-linecap="square"/>
</g>
<defs>
<clipPath id="clip0_1_2197">
<rect width="24" height="24" fill="white"/>
</clipPath>
</defs>
</svg>
