<svg width="16" height="16" viewBox="0 0 16 16" fill="none" xmlns="http://www.w3.org/2000/svg">
<path d="M2 16C3.10457 16 4 15.1046 4 14C4 12.8954 3.10457 12 2 12C0.89543 12 0 12.8954 0 14C0 15.1046 0.89543 16 2 16Z" fill="#3CBF88"/>
<path d="M14 16C15.1046 16 16 15.1046 16 14C16 12.8954 15.1046 12 14 12C12.8954 12 12 12.8954 12 14C12 15.1046 12.8954 16 14 16Z" fill="#3CBF88"/>
<path d="M5.5 14.5C5.36894 14.5 5.2431 14.4486 5.14959 14.3567C5.05608 14.2649 5.00236 14.14 5 14.009C5.00118 13.6143 4.92446 13.2232 4.77423 12.8582C4.62399 12.4932 4.4032 12.1614 4.12451 11.8819C3.84582 11.6023 3.5147 11.3805 3.15013 11.2292C2.78557 11.0779 2.39472 11 2 11C1.73478 11 1.48043 10.8946 1.29289 10.7071C1.10536 10.5196 1 10.2652 1 10C1 9.73478 1.10536 9.48043 1.29289 9.29289C1.48043 9.10536 1.73478 9 2 9C2.77911 9.00219 3.54684 9.18707 4.24154 9.5398C4.93623 9.89253 5.53851 10.4033 6 11.031V11H9.884L12.137 8.466L11.142 2H9C8.73478 2 8.48043 1.89464 8.29289 1.70711C8.10536 1.51957 8 1.26522 8 1C8 0.734784 8.10536 0.48043 8.29289 0.292893C8.48043 0.105357 8.73478 0 9 0L12 0C12.2388 9.08682e-05 12.4697 0.0856412 12.6509 0.241177C12.8321 0.396713 12.9517 0.611965 12.988 0.848L14.188 8.627C14.2103 8.77237 14.2003 8.92086 14.1586 9.06191C14.117 9.20296 14.0447 9.33308 13.947 9.443L9.747 14.164C9.65326 14.2696 9.53823 14.3541 9.40948 14.412C9.28073 14.4699 9.14118 14.4999 9 14.5H5.5Z" fill="#3CBF88"/>
</svg>
