<svg width="32" height="32" viewBox="0 0 32 32" fill="none" xmlns="http://www.w3.org/2000/svg">
<path d="M5.92896 20.071C4.9937 19.1439 4.25077 18.0412 3.74282 16.8262C3.23487 15.6112 2.9719 14.3078 2.96902 12.9909C2.96613 11.674 3.22339 10.3695 3.72601 9.15232C4.22864 7.9351 4.96673 6.82916 5.89793 5.89796C6.82912 4.96677 7.93507 4.22868 9.15228 3.72605C10.3695 3.22343 11.674 2.96617 12.9909 2.96906C14.3078 2.97194 15.6112 3.23491 16.8262 3.74286C18.0412 4.25081 19.1439 4.99374 20.071 5.929" stroke="#707270" stroke-width="4" stroke-miterlimit="10"/>
<path d="M22.168 9C22.9705 10.8425 23.1996 12.8839 22.8254 14.8584C22.4512 16.8329 21.491 18.6489 20.07 20.07C18.6489 21.491 16.8329 22.4512 14.8584 22.8254C12.8839 23.1996 10.8425 22.9705 9 22.168" stroke="#707270" stroke-width="4" stroke-miterlimit="10" stroke-linecap="square"/>
<path d="M28.9999 29L20.0709 20.071" stroke="#707270" stroke-width="4" stroke-miterlimit="10" stroke-linecap="square"/>
<path d="M3 23L23 3" stroke="#707270" stroke-width="4" stroke-miterlimit="10" stroke-linecap="square"/>
</svg>
