<svg width="20" height="20" viewBox="0 0 20 20" fill="none" xmlns="http://www.w3.org/2000/svg">
<g clip-path="url(#clip0_1_759)">
<g clip-path="url(#clip1_1_759)">
<path d="M8.71688 14.0031L13.9968 8.72316C14.6806 8.91772 15.4044 8.92306 16.091 8.7386C16.7776 8.55414 17.4013 8.18681 17.8955 7.67576C18.3897 7.16472 18.736 6.52912 18.8975 5.83674C19.0589 5.14435 19.0293 4.42114 18.812 3.74422L15.9239 6.63232L13.416 4.10325L16.3094 1.19931C15.6311 0.972759 14.9039 0.935406 14.2059 1.09126C13.508 1.24712 12.8658 1.5903 12.3483 2.08388C11.8308 2.57745 11.4577 3.20276 11.2691 3.89255C11.0804 4.58234 11.0834 5.31051 11.2776 5.99874L5.99773 11.2786C5.16002 11.0416 4.26733 11.0891 3.45955 11.4139C2.65177 11.7386 1.97454 12.3221 1.53398 13.073C1.09342 13.8239 0.91443 14.6998 1.02505 15.5633C1.13568 16.4269 1.52966 17.2294 2.14527 17.845C2.76088 18.4606 3.56334 18.8546 4.42689 18.9652C5.29044 19.0758 6.16629 18.8968 6.9172 18.4563C7.66811 18.0157 8.25164 17.3385 8.57637 16.5307C8.90109 15.7229 8.94865 14.8302 8.7116 13.9925L8.71688 14.0031Z" stroke="#08090A" stroke-width="2" stroke-linejoin="round"/>
<path d="M6 14.7332L5.26742 14.0006L4.26904 14.2697L4 15.2713L4.73258 16.0006L5.73096 15.7348L6 14.7332Z" stroke="#08090A" stroke-width="2" stroke-linecap="round" stroke-linejoin="round"/>
</g>
</g>
<defs>
<clipPath id="clip0_1_759">
<rect width="20" height="20" fill="white"/>
</clipPath>
<clipPath id="clip1_1_759">
<rect width="20" height="20" fill="white"/>
</clipPath>
</defs>
</svg>
