<svg width="20" height="20" viewBox="0 0 20 20" fill="none" xmlns="http://www.w3.org/2000/svg">
<g clip-path="url(#clip0_1457_673)">
<g clip-path="url(#clip1_1457_673)">
<path d="M5.77634 19L10.2798 14.489C11.4717 14.8286 12.7332 14.8379 13.9298 14.5159C15.1265 14.1939 16.2135 13.5526 17.0749 12.6604C17.9363 11.7682 18.5399 10.6586 18.8212 9.44979C19.1025 8.24102 19.0511 6.97843 18.6724 5.79664L13.6387 10.8387L9.2676 6.42345L14.3105 1.3537C13.1283 0.958196 11.8608 0.892985 10.6444 1.16509C9.42799 1.43719 8.30864 2.0363 7.40675 2.898C6.50485 3.75969 5.85453 4.85137 5.52574 6.05561C5.19694 7.25985 5.2021 8.53109 5.54066 9.73261L1 14.2807" stroke="#08090A" stroke-width="2" stroke-linejoin="round"/>
</g>
</g>
<defs>
<clipPath id="clip0_1457_673">
<rect width="20" height="20" fill="white"/>
</clipPath>
<clipPath id="clip1_1457_673">
<rect width="20" height="20" fill="white"/>
</clipPath>
</defs>
</svg>
