<svg width="16" height="16" viewBox="0 0 16 16" fill="none" xmlns="http://www.w3.org/2000/svg">
<path d="M6.67295 5.71096C6.76145 5.69433 6.84382 5.65411 6.91135 5.59454C6.97889 5.53497 7.02908 5.45827 7.05664 5.37254C7.08419 5.28681 7.08808 5.19523 7.06789 5.10747C7.0477 5.01971 7.00419 4.93903 6.94195 4.87396L5.34195 3.19396C6.05137 2.79818 6.83979 2.5648 7.65034 2.51065C8.46089 2.4565 9.27335 2.58294 10.0291 2.88085C10.7849 3.17875 11.4651 3.64069 12.0207 4.23334C12.5763 4.82598 12.9934 5.53456 13.2419 6.30796C13.3334 6.54741 13.5133 6.7426 13.7446 6.85321C13.9758 6.96383 14.2407 6.98143 14.4845 6.90237C14.7284 6.82332 14.9325 6.65365 15.0549 6.4284C15.1772 6.20316 15.2084 5.93953 15.1419 5.69196C14.7891 4.59587 14.1882 3.59591 13.386 2.76981C12.5839 1.9437 11.602 1.3137 10.5168 0.928771C9.43153 0.543838 8.27214 0.414342 7.12871 0.550347C5.98528 0.686353 4.88862 1.0842 3.92395 1.71296L2.43595 0.153957C2.3735 0.0886461 2.29451 0.0414805 2.20739 0.0174758C2.12028 -0.00652887 2.02828 -0.00647525 1.94119 0.017631C1.8541 0.0417372 1.77517 0.0889949 1.7128 0.154379C1.65042 0.219763 1.60693 0.300829 1.58695 0.388957L0.26295 6.19396C0.246115 6.2672 0.246008 6.3433 0.262638 6.41659C0.279267 6.48988 0.312204 6.55848 0.359 6.61729C0.405796 6.6761 0.465247 6.7236 0.532932 6.75626C0.600617 6.78893 0.674795 6.80591 0.74995 6.80596C0.780738 6.80693 0.811548 6.80492 0.84195 6.79996L6.67295 5.71096Z" fill="white"/>
<path d="M15.6099 9.34799C15.5528 9.28773 15.4815 9.24285 15.4025 9.21751C15.3235 9.19216 15.2394 9.18717 15.1579 9.20299L9.3269 10.289C9.2384 10.3056 9.15603 10.3458 9.08849 10.4054C9.02096 10.465 8.97076 10.5417 8.94321 10.6274C8.91566 10.7131 8.91177 10.8047 8.93196 10.8925C8.95214 10.9802 8.99566 11.0609 9.0579 11.126L10.6579 12.806C9.94848 13.2018 9.16006 13.4352 8.34951 13.4893C7.53896 13.5434 6.7265 13.417 5.97074 13.1191C5.21498 12.8212 4.53477 12.3593 3.97917 11.7666C3.42358 11.174 3.00646 10.4654 2.7579 9.69199C2.66643 9.45254 2.4865 9.25735 2.25527 9.14673C2.02404 9.03612 1.75916 9.01852 1.51533 9.09757C1.27149 9.17663 1.06733 9.3463 0.944984 9.57154C0.822642 9.79679 0.791468 10.0604 0.857898 10.308C1.21094 11.4035 1.81172 12.4028 2.61361 13.2285C3.41549 14.0541 4.39689 14.6839 5.48159 15.0687C6.5663 15.4536 7.72512 15.5833 8.86807 15.4477C10.011 15.3122 11.1073 14.915 12.0719 14.287L13.5599 15.846C13.6224 15.9113 13.7014 15.9584 13.7886 15.9824C13.8758 16.0063 13.9678 16.0062 14.0549 15.982C14.1419 15.9579 14.2208 15.9106 14.2831 15.8453C14.3454 15.78 14.3889 15.699 14.4089 15.611L15.7329 9.80599C15.7519 9.72543 15.7506 9.64142 15.7292 9.56148C15.7077 9.48154 15.6667 9.40819 15.6099 9.34799Z" fill="white"/>
</svg>
