<svg width="22" height="22" viewBox="0 0 22 22" fill="none" xmlns="http://www.w3.org/2000/svg">
<path fill-rule="evenodd" clip-rule="evenodd" d="M16.2105 4.73C19.3534 5.005 21.8346 7.535 22 10.67C21.8346 5.5 17.5338 1.375 12.2957 1.54C9.20802 1.65 6.34085 3.19 4.68672 5.775C4.96241 2.64 7.49875 0.165 10.6416 0C5.40351 0.22 1.37845 4.675 1.599 9.9C1.70927 12.87 3.25313 15.62 5.73434 17.27C2.59148 16.995 0.165414 14.465 0 11.33C0.110276 16.5 4.46617 20.625 9.64912 20.515C12.7368 20.46 15.5489 18.865 17.2581 16.335C16.9825 19.415 14.4461 21.835 11.3584 22C16.5414 21.835 20.6216 17.49 20.4561 12.265C20.3459 9.24 18.802 6.38 16.2105 4.73ZM10.9724 14.96C9.92481 14.96 8.93233 14.575 8.21554 13.805C6.67168 12.265 6.72682 9.79 8.21554 8.305C9.70426 6.82 12.2406 6.82 13.7293 8.305C15.218 9.79 15.218 12.32 13.7293 13.805C13.0125 14.575 12.02 14.96 10.9724 14.96Z" fill="#0A121E"/>
</svg>
