<svg width="118" height="32" viewBox="0 0 118 32" fill="none" xmlns="http://www.w3.org/2000/svg">
<g clip-path="url(#clip0_6362_1835)">
<path d="M11.4438 0C6.88926 0 3.20335 3.55309 3.20335 7.94351V10.9207C1.60397 11.1998 0 11.5719 0 12.0548V27.5919C0 27.5919 0 28.0216 0.500954 28.2254C2.31634 28.9342 9.45837 31.3709 11.0991 31.9291C11.3105 32.0044 11.3703 32.0044 11.4254 32.0044C11.5036 32.0044 11.5403 32.0044 11.7517 31.9291C13.3925 31.3709 20.5529 28.9342 22.3683 28.2254C22.8325 28.0393 22.8508 27.6096 22.8508 27.6096V12.0548C22.8508 11.5719 21.2699 11.1821 19.6659 10.9207V7.94351C19.6889 3.55309 15.98 0 11.4438 0ZM11.4438 3.79676C14.1278 3.79676 15.7502 5.36065 15.7502 7.94794V10.5352C12.7399 10.3314 10.1707 10.3314 7.14204 10.5352V7.94794C7.14204 5.35622 8.76439 3.79676 11.4438 3.79676ZM11.4254 14.3453C15.1711 14.3453 18.3147 14.6244 18.3147 15.125V24.8185C18.3147 24.9691 18.2963 24.9868 18.1584 25.04C18.0251 25.0976 11.7701 27.2729 11.7701 27.2729C11.7701 27.2729 11.5173 27.3482 11.4438 27.3482C11.3657 27.3482 11.1175 27.2552 11.1175 27.2552C11.1175 27.2552 4.86247 25.0799 4.72919 25.0223C4.59591 24.9647 4.57293 24.947 4.57293 24.8008V15.1073C4.53616 14.6067 7.67976 14.3453 11.4254 14.3453Z" fill="#040F1F"/>
<path d="M33.4806 24.9531V14.3378H29.457V10.5312H42.0022V14.3378H38.0181V24.9531H33.4806Z" fill="#040F1F"/>
<path d="M52.1667 24.9531L50.1022 20.4182H48.4594V24.9531H43.9219V10.5312H51.9075C55.4127 10.5312 57.2928 12.7712 57.2928 15.4726C57.2928 17.9624 55.7993 19.2792 54.6001 19.8466L57.3103 24.9489H52.1667V24.9531ZM52.7026 15.4726C52.7026 14.6893 51.9822 14.3505 51.2267 14.3505H48.4594V16.6286H51.2267C51.9822 16.6116 52.7026 16.2729 52.7026 15.4726Z" fill="#040F1F"/>
<path d="M59.6719 24.9531V10.5312H71.0178V14.3378H64.1918V15.7606H70.8509V19.5671H64.1918V21.1508H71.0178V24.9531H59.6719Z" fill="#040F1F"/>
<path d="M73.3789 24.9688V21.5009L79.0804 14.3535H73.3789V10.5469H85.0543V13.9809L79.3352 21.1664H85.2212V24.973L73.3789 24.9688Z" fill="#040F1F"/>
<path d="M86.3281 17.7661C86.3281 13.3371 89.8905 10.2969 94.5202 10.2969C99.1323 10.2969 102.712 13.3201 102.712 17.7661C102.712 22.1951 99.1499 25.2184 94.5202 25.2184C89.8905 25.2184 86.3281 22.1951 86.3281 17.7661ZM98.1001 17.7661C98.1001 15.7548 96.6813 14.1543 94.5026 14.1543C92.3239 14.1543 90.9051 15.7548 90.9051 17.7661C90.9051 19.7773 92.3239 21.3779 94.5026 21.3779C96.6989 21.3779 98.1001 19.7773 98.1001 17.7661Z" fill="#040F1F"/>
<path d="M112.854 24.9687L110.79 20.4339H109.147V24.9687H104.609V10.5469H112.595C116.1 10.5469 117.98 12.7868 117.98 15.4882C117.98 17.978 116.487 19.2948 115.288 19.8622L117.998 24.9645H112.854V24.9687ZM113.408 15.4713C113.408 14.688 112.687 14.3492 111.932 14.3492H109.164V16.6273H111.932C112.692 16.6103 113.408 16.2716 113.408 15.4713Z" fill="#040F1F"/>
</g>
<defs>
<clipPath id="clip0_6362_1835">
<rect width="118" height="32" fill="white"/>
</clipPath>
</defs>
</svg>
