<svg width="16" height="16" viewBox="0 0 16 16" fill="none" xmlns="http://www.w3.org/2000/svg">
<g clip-path="url(#clip0_2252_2305)">
<path d="M15 4H11V1C11 0.4 10.6 0 10 0H3C1.3 0 0 1.3 0 3V13C0 14.7 1.3 16 3 16H15C15.6 16 16 15.6 16 15V5C16 4.4 15.6 4 15 4ZM2 3C2 2.4 2.4 2 3 2H9V4H2V3ZM14 14H3C2.4 14 2 13.6 2 13V6H10H14V14Z" fill="white"/>
<path d="M13 9H11V11H13V9Z" fill="white"/>
</g>
<defs>
<clipPath id="clip0_2252_2305">
<rect width="16" height="16" fill="white"/>
</clipPath>
</defs>
</svg>
