<svg width="20" height="20" viewBox="0 0 20 20" fill="none" xmlns="http://www.w3.org/2000/svg">
<g clip-path="url(#clip0_1_512)">
<path d="M10 1V19" stroke="#08090A" stroke-width="2" stroke-miterlimit="10"/>
<path d="M1 10H19" stroke="#08090A" stroke-width="2" stroke-miterlimit="10"/>
<path d="M10 19C12.4853 19 14.5 14.9706 14.5 10C14.5 5.02944 12.4853 1 10 1C7.51472 1 5.5 5.02944 5.5 10C5.5 14.9706 7.51472 19 10 19Z" stroke="#08090A" stroke-width="2" stroke-miterlimit="10" stroke-linecap="square"/>
<path d="M10 19C14.9706 19 19 14.9706 19 10C19 5.02944 14.9706 1 10 1C5.02944 1 1 5.02944 1 10C1 14.9706 5.02944 19 10 19Z" stroke="#08090A" stroke-width="2" stroke-miterlimit="10" stroke-linecap="square"/>
</g>
<defs>
<clipPath id="clip0_1_512">
<rect width="20" height="20" fill="white"/>
</clipPath>
</defs>
</svg>
