<svg width="40" height="40" viewBox="0 0 30 31" fill="none" xmlns="http://www.w3.org/2000/svg">
<path fill-rule="evenodd" clip-rule="evenodd" d="M15 30.2132C23.2843 30.2132 30 23.4975 30 15.2132C30 6.92893 23.2843 0.213203 15 0.213203C6.71573 0.213203 0 6.92893 0 15.2132C0 23.4975 6.71573 30.2132 15 30.2132ZM16.8699 19.3055H12.0205V18.8273C12.0205 15.5498 12.8322 14.5337 14.363 13.5674C15.6678 12.7405 16.6644 12.0531 16.6644 10.9374C16.6644 9.94118 15.8425 9.26376 14.8151 9.26376C13.7055 9.26376 12.7603 10.0707 12.7603 11.2163H7.5C7.5411 6.83302 10.8596 5 14.8562 5C19.2432 5 22.5 6.87287 22.5 10.6186C22.5 13.0394 21.1336 14.4639 19.1301 15.5996C17.6404 16.4464 16.8699 17.2434 16.8699 18.8273V19.3055ZM17.4041 23.2106C17.3836 24.7647 16.0377 26 14.5274 26C12.9349 26 11.6301 24.7647 11.6507 23.2106C11.6301 21.6964 12.9349 20.4611 14.5274 20.4611C16.0377 20.4611 17.3836 21.6964 17.4041 23.2106Z" fill="#0A121E"/>
</svg>
